<?xml version="1.0" encoding="UTF-8"?>
<!-- Created with Inkscape (http://www.inkscape.org/) -->
<svg width="132.29mm" height="127.59mm" version="1.1" viewBox="0 0 132.29 127.59" xmlns="http://www.w3.org/2000/svg">
 <g transform="translate(-50.26 -132.64)">
  <g transform="matrix(.26458 0 0 .26458 21.254 95.365)">
   <g id="Grupo_1_1_" transform="translate(2137.5 1170.2)"></g>
   <g transform="translate(539 .61592)">
    <g fill="none">
     <path d="m-81.776 424.17 3e-3 -2.7036 5.4387-25.272" stroke="#050" stroke-width="4.5354"/>
     <path d="m-73.192 424.3 0.38809-4.9015 4.5736-21.354" stroke="#afa" stroke-width="4.5354"/>
     <path d="m-104.16 587.78 4.7937-12.979 4.4586-5.8144 3.7169-1.2857 6.6248 2.5658 7.57 0.0646 16.828-3.5889 7.9068-2.9095 2.229-3.7183-2e-3 -4.1905-7.7164-28.384-3.2528-21.56-3.9954-19.396-6.6346-27.371-4.8755-22.978-1.0185-11.693 0.26875-4.0555 4.79-22.374 3.171-14.398 8.0324-27.039 7.1564-20.28 9.2567-7.6412 6.6215-5.6125 10.406-6.6279 11.081-10.21" stroke="#333" stroke-width="4.1575"/>
     <path d="m-395.91 262.8 24.088 18.926 8.0292 5.9263 13 3.4411 8.0292 9.1762 31.352 12.044 11.088 4.2058 14.72 2.4852 17.205 7.2645 14.147 7.0733 14.72 16.25 29.823 33.264 11.279 6.4998 14.338 5.1616 12.426 3.0587 34.984 4.0146 21.793 3.8234 14.911 0.38234h9.9409l15.102 2.6764 24.852 0.38235 27.337-1.147 22.176-1.7205 23.514-1.7205 21.411-1.7205 18.926-1.147" stroke="#1a1a1a" stroke-width="4.1575"/>
    </g>
    <g fill="#f00">
     <path d="m-398.29 265.72 23.693 19.262" stroke="#e5ffd5" stroke-width="4.5354"/>
     <path d="m-392.72 259.35 23.693 19.262" stroke="#e5ffd5" stroke-width="4.5354"/>
     <circle cx="-395.91" cy="262.61" r="3.893"/>
     <path d="m-374.76 284.87 8.6027 6.4998 12.235 3.1543 9.1751 9.0822" stroke="#cfa" stroke-width="4.5354"/>
     <path d="m-370.02 278 7.7429 6.1164 12.235 3.1543 9.1751 9.0822" stroke="#cfa" stroke-width="4.5354"/>
    </g>
    <path d="m-345.46 303.17 32.101 12.794" fill="#0f0" stroke="#b3ff80" stroke-width="4.5354"/>
    <path d="m-341.72 295.92 31.432 12.22" fill="#0f0" stroke="#b3ff80" stroke-width="4.5354"/>
    <g fill="none">
     <g stroke-width="4.5354">
      <path d="m-313.44 315.95 11.22 4.0559 15.545 3.1779 16.019 6.8254" stroke="#338000"/>
      <path d="m-310.34 308.07 11.697 4.3432 15.545 3.1779 16.019 6.8254" stroke="#338000"/>
      <path d="m-270.81 329.99 14.802 7.0297 13.536 15.235" stroke="#ff0"/>
      <path d="m-267.31 322.52 15.757 7.7 15.256 16.193" stroke="#ff0"/>
      <path d="m-242.56 352.18 30.773 34.069" stroke="#4a0"/>
      <path d="m-236.28 346.4 29.34 33.589" stroke="#4a0"/>
      <path d="m-212.33 385.82 8.5258 5.585 18.784 7.2062 12.388 2.6675" stroke="#55d400"/>
      <path d="m-207.79 379.48 5.4696 3.5739 19.357 7.4937 12.292 2.8586" stroke="#55d400"/>
      <path d="m-172.61 401.36 35.584 4.2754" stroke="#338000"/>
      <path d="m-171.05 393.21 35.584 4.2754" stroke="#338000"/>
      <path d="m-137.55 405.62 20.378 3.2574 17.182 1.005" stroke="#050"/>
      <path d="m-136.56 397.45 20.378 3.2574 17.182 1.005" stroke="#050"/>
      <path d="m-100.01 409.92 8.8931 0.0784 15.299 2.6837" stroke="#112b00"/>
      <path d="m-99.784 401.61 8.8931 0.0784 15.299 2.6837" stroke="#112b00"/>
      <path d="m-76.11 412.75 26.058 0.23094" stroke="#250"/>
      <path d="m-76.254 404.52 26.058 0.23094" stroke="#250"/>
      <path d="m-49.992 412.99 27.441-1.2179" stroke="#4a0"/>
      <path d="m-50.564 404.61 27.441-1.2179" stroke="#4a0"/>
      <path d="m-22.551 411.7 22.237-1.553" stroke="#338000"/>
      <path d="m-23.203 403.28 22.237-1.553" stroke="#338000"/>
     </g>
     <path d="m-0.3813 410.08 19.871-1.556" stroke="#112b00" stroke-width="2.2677"/>
     <path d="m-1.1808 401.77 19.871-1.556" stroke="#112b00" stroke-width="2.2677"/>
     <path d="m29.817 410.37-0.3555-4.2174-0.28423-2.5-0.37256-7.5241" stroke="#6f0" stroke-width="2.2677"/>
     <path d="m32.792 413.9 4.4341-2.7576-0.11767-6.0863-0.3407-9.5969" stroke="#6f0" stroke-width="2.2677"/>
     <path d="m19.22 408.52 25.549-2.0272" stroke="#338000" stroke-width="2.2677"/>
     <path d="m18.637 400.22 25.549-2.0272" stroke="#338000" stroke-width="2.2677"/>
     <path d="m44.701 406.5 19.33-1.0804" stroke="#112b00" stroke-width="4.5354"/>
     <path d="m44.21 398.25 19.33-1.0804" stroke="#112b00" stroke-width="4.5354"/>
    </g>
    <g fill="#f00">
     <circle cx="-372.61" cy="280.98" r="3.9606"/>
     <circle cx="-342.97" cy="299.62" r="3.9606"/>
     <circle cx="-311.92" cy="312.47" r="3.9606"/>
     <circle cx="-268.83" cy="326.09" r="3.9606"/>
     <circle cx="-239.7" cy="349.64" r="3.9606"/>
     <circle cx="-209.92" cy="382.94" r="3.9606"/>
     <circle cx="-171.8" cy="397.42" r="3.9606"/>
    </g>
    <g fill="none" stroke-width="4.5354">
     <path d="m-108.01 585.15 6.0462-13.124 5.0104-7.023 5.9502-1.8851 6.4847 3.1172 6.7591-0.12672" stroke="#2aff2a"/>
     <path d="m-100.33 587.6 4.0342-9.303 2.5217-4.2541 2.7009-2.367 8.0138 3.3103 6.7597-0.60464" stroke="#008000"/>
     <path d="m-78.168 566.11 17.172-3.6283 6.2204-1.7495 1.2205-3.1076-0.13312-1.6223" stroke="#050"/>
     <path d="m-76.465 574.42 17.363-3.6281 9.2811-3.3707 3.6157-7.5971 0.25401-5.4452" stroke="#0f0"/>
     <path d="m-53.69 556.95-7.6691-28.803" stroke="#002b00"/>
     <path d="m-46.083 554.88-7.287-28.611" stroke="#00d400"/>
     <path d="m-61.224 528.28-4.8302-28.934-2.5566-9.4657" stroke="#d5ffd5"/>
     <path d="m-53.28 526.51-4.3536-27.882-2.7454-11.282" stroke="#050"/>
     <path d="m-68.611 489.88-7.2624-29.748" stroke="#80ff80"/>
     <path d="m-60.253 487.66-7.2631-29.175" stroke="#0f0"/>
     <path d="m-75.873 460.27-5.1055-25.014-0.79703-11.221" stroke="#2aff2a"/>
     <path d="m-67.468 458.63-5.1073-23.581-0.70157-11.125" stroke="#0a0"/>
     <path d="m-76.199 396.19 3.126-13.514" stroke="#217821"/>
     <path d="m-68.117 398.1 3.126-13.514" stroke="#217821"/>
     <path d="m-73.073 382.95 9.0958-31.08" stroke="#0f0"/>
     <path d="m-65.244 384.81 9.0956-30.888" stroke="#80ff80"/>
     <path d="m-63.977 352 6.1474-17.568 9.8374-9.4474" stroke="#002b00"/>
     <path d="m-56.31 354.14 5.0928-15.084 8.6879-7.4415" stroke="#afa"/>
     <path d="m-48.263 325.26 12.448-8.9062 7.0348-4.4521 8.6622-8.6406" stroke="#afa"/>
     <path d="m-42.828 331.73 12.448-8.9062 7.0348-4.4521 8.6622-8.6406" stroke="#0f0"/>
    </g>
    <g fill="#ff0">
     <circle cx="-104.28" cy="588.03" r="3.9606"/>
     <circle cx="-77.33" cy="570.67" r="3.9606"/>
     <circle cx="-50.128" cy="555.58" r="3.9606"/>
     <circle cx="-57.453" cy="527.47" r="3.9606"/>
     <circle cx="-64.764" cy="488.65" r="3.9606"/>
     <circle cx="-71.514" cy="459.3" r="3.9606"/>
     <circle cx="-77.587" cy="423.92" r="3.9606"/>
     <circle cx="-72.392" cy="397.17" r="3.9606"/>
     <circle cx="-69.031" cy="384.27" r="3.9606"/>
     <circle cx="-60.103" cy="353.4" r="3.9606"/>
     <circle cx="-45.161" cy="329.14" r="3.9606"/>
     <circle cx="-16.839" cy="306.53" r="3.9606"/>
    </g>
    <g fill="#f00">
     <circle cx="-136.82" cy="401.67" r="3.9606"/>
     <circle cx="-100.03" cy="405.83" r="3.9606"/>
     <circle cx="-75.274" cy="408.54" r="3.9606"/>
     <circle cx="-50.423" cy="409.05" r="3.9606"/>
     <circle cx="-22.892" cy="407.84" r="3.9606"/>
     <circle cx="-.81011" cy="406.15" r="3.9606"/>
     <circle cx="44.215" cy="402.67" r="3.9606"/>
    </g>
    <g fill="none">
     <g stroke-width="4.5354">
      <path d="m-301.98 178.17 23.298 32.524" stroke="#55d400"/>
      <path d="m-295.22 173.52 23.298 32.524" stroke="#55d400"/>
      <path d="m-278.74 210.59 9.2254 12.72 9.9712 7.0499" stroke="#6f0"/>
      <path d="m-271.85 206.03 7.6051 11.231 9.0256 6.508" stroke="#6f0"/>
      <path d="m-259.69 230.31 30.909 18.591" stroke="#55d400"/>
      <path d="m-255.83 223.53 30.909 18.591" stroke="#55d400"/>
      <path d="m-229.03 248.74 38.615 24.811" stroke="#338000"/>
      <path d="m-224.96 242.09 38.345 24.269" stroke="#338000"/>
      <path d="m-190.66 273.4 32.402 13.932" stroke="#55d400"/>
      <path d="m-186.87 266.1 32.402 13.932" stroke="#55d400"/>
      <path d="m-158.76 287.18 6.4098 3.5111 12.739 10.937" stroke="#7fff2a"/>
      <path d="m-154.64 279.93 7.3552 4.1881 12.739 10.937" stroke="#7fff2a"/>
      <path d="m-139.74 301.4 21.122 17.819" stroke="#338000"/>
      <path d="m-134.5 294.9 21.122 17.819" stroke="#338000"/>
      <path d="m-118.77 319.17 15.776 13.295" stroke="#55d400"/>
      <path d="m-113.32 312.73 15.776 13.295" stroke="#55d400"/>
      <path d="m-103.21 332.24 8.2483 7.3611 10.794 10.849" stroke="#7fff2a"/>
      <path d="m-97.723 326.15 8.2483 7.3611 10.794 10.849" stroke="#7fff2a"/>
      <path d="m-84.415 350.23 17.347 16.849" stroke="#55d400"/>
      <path d="m-67.493 366.32 5.0152 16.904 6.2846 4.8067 10.123 1.4204" stroke="#6f0"/>
      <path d="m-60.929 362.1 5.422 15.958 2.7728 2.5043 7.0137 1.5517" stroke="#6f0"/>
     </g>
     <g stroke="#55d400" stroke-width="4.5354">
      <path d="m-78.735 344.38 17.752 17.931"/>
      <path d="m-46.222 389.54 24.035-0.63423"/>
      <path d="m-46.292 382.1 24.035-0.63423"/>
     </g>
     <path d="m-22.216 388.93 16.419-0.0538 10.498 10.524" stroke="#250" stroke-width="4.5354"/>
     <path d="m-22.449 381.4 21.015 0.49266 11.308 11.472" stroke="#250" stroke-width="4.5354"/>
     <path d="m17.992 430.4 0.27204-9.794 1.502-4.4835 2.8521-2.4315 6.772-3.4576" stroke="#55d400" stroke-width="2.2677"/>
     <path d="m25.68 429.63-0.3546-12.554 7.5192-3.3267" stroke="#55d400" stroke-width="2.2677"/>
     <g stroke-width="2.2677">
      <path d="m4.4269 399.09 26.64 18.49" stroke="#338000"/>
      <path d="m9.5597 393.02 26.64 18.49" stroke="#338000"/>
      <path d="m31.039 417.48 13.507 8.5331" stroke="#55d400"/>
      <path d="m35.981 411.27 13.507 8.5331" stroke="#55d400"/>
     </g>
    </g>
    <g fill="#4a0" stroke="#e5ffd5">
     <circle cx="-299.04" cy="175.6" r="3.9606" stroke-width=".37795"/>
     <g stroke-width=".37795">
      <circle cx="-275.35" cy="208.72" r="3.9606"/>
      <circle cx="-257.8" cy="227.26" r="3.9606"/>
      <circle cx="-227" cy="245.69" r="3.9606"/>
      <circle cx="-188.91" cy="269.93" r="3.9606"/>
      <circle cx="-157.17" cy="283.89" r="3.9606"/>
      <circle cx="-137.31" cy="298.65" r="3.9606"/>
      <circle cx="-116.11" cy="316.39" r="3.9606"/>
      <circle cx="-100.31" cy="329.38" r="3.9606"/>
      <circle cx="-81.544" cy="347.25" r="3.9606"/>
      <circle cx="-64.399" cy="364.85" r="3.9606"/>
      <circle cx="-46.446" cy="385.69" r="3.9606"/>
      <circle cx="-22.384" cy="385.58" r="3.9606"/>
      <circle cx="6.8008" cy="396.3" r="3.9606"/>
      <circle cx="24.918" cy="408.33" r="2.6228"/>
      <circle cx="47.186" cy="422.57" r="3.9606"/>
     </g>
    </g>
    <g fill="none" stroke-width="4.5354">
     <path d="m24.079 520.87 0.86011-7.5525 3.1253-12.973 0.91499-6.6718" stroke="#6f0"/>
     <path d="m16.308 520.54 0.86011-7.5525 3.1253-12.973 0.91499-6.6718" stroke="#6f0"/>
     <path d="m28.884 494 0.20012-20.27" stroke="#338000"/>
     <path d="m16.318 475.8 0.0044-7.0349 20.454-17.961" stroke="#0a0"/>
     <path d="m21.169 493.92 0.20012-20.27" stroke="#338000"/>
     <path d="m8.2789 475.81 0.73988-11.641 22.071-18.463" stroke="#0a0"/>
     <path d="m29.044 473.8-0.52557-12.111-1.874-14.809" stroke="#6f0"/>
     <path d="m21.438 474.02-0.52557-12.111-1.874-14.809" stroke="#6f0"/>
     <path d="m26.644 447.13-0.96377-17.647" stroke="#4a0"/>
     <path d="m18.939 447.68-0.96377-17.647" stroke="#4a0"/>
     <path d="m36.807 395.95-0.87831-22.665 2.9814-5.9441" stroke="#338000"/>
     <path d="m28.562 396.2-0.30085-25.818 3.6518-6.9947" stroke="#338000"/>
     <path d="m38.583 367.92 7.7754-11.378" stroke="#9f5"/>
     <path d="m31.876 363.61 7.7754-11.378" stroke="#9f5"/>
    </g>
    <g fill="#04a">
     <circle cx="20.21" cy="520.28" r="3.9606"/>
     <circle cx="24.525" cy="494.11" r="3.9606"/>
     <circle cx="24.99" cy="474.42" r="3.9606"/>
     <circle cx="22.713" cy="447.46" r="3.9606"/>
     <circle cx="32.627" cy="411" r="2.8152"/>
     <circle cx="32.201" cy="395.69" r="3.9606"/>
     <circle cx="35.097" cy="366.07" r="3.9606"/>
     <circle cx="42.696" cy="354.63" r="3.9606"/>
    </g>
    <circle cx="19.074" cy="404.45" r="3.0995" fill="#f00"/>
    <g fill="none" stroke-width="4.5354">
     <path d="m-293.95 595.6 2.2272-5.2316 2.9777-3.6157 9.7427-8.6307" stroke="#0f0"/>
     <path d="m-301.22 592.19 2.8451-6.9751 4.2193-4.7386 9.9925-8.258" stroke="#0f0"/>
     <path d="m-279.03 578.06 8.4097-8.1493 3.9499-3.6314 5.5791-2.9395 5.3032-0.89633 7.3649 0.82305" stroke="#0a0"/>
     <path d="m-284.33 572.33 6.5469-6.6516 7.428-6.1284 6.2001-3.4387 7.2932-1.2744 7.9867 0.69712" stroke="#0a0"/>
     <path d="m-249.03 563.27 10.183-0.71338 6.1502-3.81 14.179-11.574 2.1389-7.1645" stroke="#0f0"/>
     <path d="m-249 555.64 6.3262-0.45521 8.387-5.0598 8.9634-7.0823 2.0193-5.1733" stroke="#0f0"/>
     <path d="m-216.58 540.15 1.0319-3.6839 7.0547-6.891 5.5219-2.7012 16.742-2.722" stroke="#00d400"/>
     <path d="m-223.45 538.14 0.53083-5.0515 5.3144-6.1402 10.862-7.0692 18.856-3.2248" stroke="#00d400"/>
     <path d="m-186.17 524.12 29.877-5.1481" stroke="#0f0"/>
     <path d="m-187.82 516.64 29.877-5.1481" stroke="#0f0"/>
     <path d="m-156.37 518.91 35.065-5.933" stroke="#afa"/>
     <path d="m-157.95 511.35 35.065-5.933" stroke="#afa"/>
     <path d="m-121.47 513 33.515-5.6226" stroke="#0f0"/>
     <path d="m-122.85 505.39 33.515-5.6226" stroke="#0f0"/>
     <path d="m-88.269 507.38 16.715-2.4046" stroke="#00d400"/>
     <path d="m-89.694 499.74 16.715-2.4046" stroke="#00d400"/>
     <path d="m-71.719 504.98 30.077-3.3914" stroke="#0f0"/>
     <path d="m-72.989 497.32 30.077-3.3914" stroke="#0f0"/>
     <path d="m-41.869 501.67 22.656-2.5842" stroke="#00d400"/>
     <path d="m-43.03 493.86 22.905-2.4604" stroke="#00d400"/>
     <path d="m-19.265 499 11.97-0.7453 11.292-0.63875" stroke="#0f0"/>
     <path d="m-20.362 491.48 11.898-0.38693 11.789-1.0132" stroke="#0f0"/>
    </g>
    <g fill="#660080">
     <circle cx="-42.33" cy="497.97" r="3.9606"/>
     <circle cx="-72.325" cy="501.56" r="3.9606"/>
     <circle cx="-88.949" cy="503.62" r="3.9606"/>
     <circle cx="-122.28" cy="509.42" r="3.9606"/>
     <circle cx="-157.02" cy="515.49" r="3.9606"/>
     <circle cx="-187.01" cy="520.93" r="3.9606"/>
     <circle cx="-220.23" cy="538.96" r="3.9606"/>
     <circle cx="-248.95" cy="559.62" r="3.9606"/>
     <circle cx="-281.47" cy="575.45" r="3.9606"/>
     <circle cx="-297.44" cy="593.35" r="3.9606"/>
    </g>
    <g fill="none" stroke-width="4.5354">
     <path d="m4.0948 497.58 9.7488-1.2629 2.3348-3.0324 0.19079-17.804" stroke="#37c837"/>
     <path d="m3.3253 490.21 2.5341-0.25002 2.4652-0.54403-0.048158-13.697" stroke="#37c837"/>
     <path d="m36.689 450.96 13.369-13.932" stroke="#0f0"/>
     <path d="m31.042 445.86 13.369-13.932" stroke="#0f0"/>
     <path d="m49.728 437.43 6.3234-6.8013 7.707-3.2539 3.4748-3.8658 1.226-7.5934-1.8722-23.719" stroke="#0a0"/>
     <path d="m44.281 432.17 6.0721-7.7961 7.2108-2.6305 2.3609-1.3745 0.73067-6.5967-1.9891-20.608" stroke="#0a0"/>
     <path d="m66.536 392.28-0.98772-9.3025-4.7385-12.99" stroke="#0f0"/>
     <path d="m58.681 393.4-0.98652-8.8048-4.361-11.249" stroke="#0f0"/>
     <path d="m60.825 370.03-6.4776-12.85" stroke="#0a0"/>
     <path d="m53.422 373.62-6.3544-13.348" stroke="#0a0"/>
    </g>
    <g fill="#660080">
     <circle cx="56.852" cy="372.15" r="3.9606"/>
     <circle cx="62.75" cy="392.92" r="3.9606"/>
     <circle cx="47.297" cy="434.77" r="3.9606"/>
     <circle cx="33.767" cy="448.36" r="3.9606"/>
     <circle cx="12.432" cy="476.16" r="3.9606"/>
     <circle cx="4.0129" cy="493.85" r="3.9606"/>
     <circle cx="-19.899" cy="495.18" r="3.9606"/>
    </g>
    <circle cx="63.047" cy="401.45" r="3.9606" fill="#f00"/>
    <circle cx="50.513" cy="358.55" r="3.9606" fill="#660080"/>
    <g fill="none" stroke-width="4.5354">
     <path d="m-329.98 538.46 28.348-9.4009" stroke="#5f5"/>
     <path d="m-332.72 530.96 28.348-9.4009" stroke="#5f5"/>
     <path d="m-301.88 529.06 15.292-5.3875 13.919-7.1263" stroke="#0a0"/>
     <path d="m-304.72 521.57 14.148-5.3848 14.36-6.5994" stroke="#0a0"/>
     <path d="m-272.55 516.48 29.208-14.007" stroke="#5f5"/>
     <path d="m-276.19 509.63 29.208-14.007" stroke="#5f5"/>
     <path d="m-243.4 502.54 27.094-13.442" stroke="#00d400"/>
     <path d="m-247.09 495.65 27.094-13.442" stroke="#00d400"/>
     <path d="m-216.25 489.03 23.984-12.874" stroke="#5f5"/>
     <path d="m-219.88 482.28 23.984-12.874" stroke="#5f5"/>
     <path d="m-192.26 476.16 23.425-12.624" stroke="#00d400"/>
     <path d="m-196.05 469.51 23.425-12.624" stroke="#00d400"/>
     <path d="m-168.84 463.53 33.367-18.061" stroke="#5f5"/>
     <path d="m-172.9 456.59 34.684-19.032" stroke="#5f5"/>
     <path d="m-136.15 445.72 5.9065-1.6941 20.154-1.8529" stroke="#0f0"/>
     <path d="m-138.8 437.95 6.6979-1.872 21.121-2.0312" stroke="#0f0"/>
     <path d="m-110.28 442.18 50.136-4.3518" stroke="#5f5"/>
     <path d="m-110.93 434.08 50.136-4.3518" stroke="#5f5"/>
     <path d="m-60.143 437.95 20.776-1.73" stroke="#00d400"/>
     <path d="m-60.715 429.69 20.776-1.73" stroke="#00d400"/>
     <path d="m-39.55 436.22 16.92-1.3474" stroke="#5f5"/>
     <path d="m-39.962 427.96 16.92-1.3474" stroke="#5f5"/>
     <path d="m-22.605 434.96 11.975-1.1564 2.4847 0.72108 6.3216 0.77664" stroke="#0a0"/>
     <path d="m-23.27 426.79 11.975-1.1564 2.4847 0.72108 6.7618 0.86356" stroke="#0a0"/>
     <path d="m-2.3333 435.26 12.607-0.85746" stroke="#5f5"/>
     <path d="m-2.611 427.28 12.607-0.85746" stroke="#5f5"/>
     <path d="m10.248 434.43 22.259-1.7926" stroke="#00d400"/>
     <path d="m9.4535 426.47 22.259-1.7926" stroke="#00d400"/>
     <path d="m32.498 432.59 7.8409-0.60778" stroke="#5f5"/>
     <path d="m31.793 424.61 7.8409-0.60778" stroke="#5f5"/>
    </g>
    <circle cx="21.543" cy="429.96" r="3.9606" fill="#04a"/>
    <g fill="#00aedc">
     <circle cx="-2.4839" cy="431.4" r="3.9606"/>
     <circle cx="-23.265" cy="431.2" r="3.9606"/>
     <circle cx="-40.185" cy="432.36" r="3.9606"/>
     <circle cx="-60.712" cy="434.03" r="3.9606"/>
     <circle cx="-110.97" cy="438.51" r="3.9606"/>
     <circle cx="-137.34" cy="441.81" r="3.9606"/>
     <circle cx="-170.77" cy="460.3" r="3.9606"/>
     <circle cx="-194.26" cy="472.82" r="3.9606"/>
     <circle cx="-218.16" cy="485.72" r="3.9606"/>
     <circle cx="-245.14" cy="498.98" r="3.9606"/>
     <circle cx="-274.32" cy="513.13" r="3.9606"/>
     <circle cx="-303.32" cy="525.43" r="3.9606"/>
     <circle cx="-331.28" cy="534.56" r="3.9606"/>
     <circle cx="31.978" cy="428.83" r="2.7163"/>
     <circle cx="40.438" cy="428.31" r="2.4674"/>
    </g>
   </g>
  </g>
 </g>
 <style type="text/css">.st0{fill:#00aedc;}
	.st1{fill:#FFFFFF;}</style>
 <style type="text/css">.st0{fill:#ee1b2c;}
	.st1{fill:#FFFFFF;}</style>
 <style type="text/css">.st0{fill:#0168b3;}
	.st1{fill:#FFFFFF;}</style>
 <style type="text/css">.st0{fill:#008066;}
	.st1{fill:#FFFFFF;}</style>
 <style type="text/css">.st0{fill:#6b1f7e;}
	.st1{fill:#FFFFFF;}</style>
 <style type="text/css">.st0{fill:#fed105;}
	.st1{fill:#57585a;}</style>
 <style type="text/css">.st0{fill-rule:evenodd;clip-rule:evenodd;fill:#818181;}
	.st1{fill-rule:evenodd;clip-rule:evenodd;fill:#FFFFFF;}
	.st2{fill:none;stroke:#818181;stroke-width:14;stroke-miterlimit:10;}
	.st3{fill:none;stroke:#000000;stroke-width:20;stroke-miterlimit:10;}
	.st4{fill:none;stroke:url(#SVGID_1_);stroke-width:14;stroke-miterlimit:10;}
	.st5{fill:none;stroke:url(#SVGID_2_);stroke-width:14;stroke-miterlimit:10;}
	.st6{fill:none;stroke:#E90012;stroke-width:14;stroke-miterlimit:10;}
	.st7{fill:none;stroke:#943C93;stroke-width:14;stroke-miterlimit:10;}
	.st8{fill-rule:evenodd;clip-rule:evenodd;}
	.st9{display:none;}
	.st10{display:inline;}
	.st11{fill:none;}
	.st12{fill-rule:evenodd;clip-rule:evenodd;fill:#EE1C25;}
	.st13{fill:#FFFFFF;}
	.st14{fill:#F0585C;}
	.st15{fill:#FFFEFE;}
	.st16{fill:#E90012;}
	.st17{fill-rule:evenodd;clip-rule:evenodd;fill:#F7941D;}
	.st18{fill:#F8A457;}
	.st19{fill:#FFAD00;}
	.st20{fill-rule:evenodd;clip-rule:evenodd;fill:#591F0B;}
	.st21{fill:#835E59;}
	.st22{fill:#774A43;}
	.st23{fill:#AA9693;}
	.st24{fill:#BEB0AE;}
	.st25{fill:#987C78;}
	.st26{fill:#672612;}
	.st27{fill-rule:evenodd;clip-rule:evenodd;fill:#0C9444;}
	.st28{fill:#66AC7A;}
	.st29{fill:#C5DCCB;}
	.st30{fill:#8FBF9B;}
	.st31{fill:#00A965;}
	.st32{fill-rule:evenodd;clip-rule:evenodd;fill:#A35DB5;}
	.st33{fill:#AC72BC;}
	.st34{fill:#943C93;}</style>
</svg>
